<svg width="123" height="17" viewBox="0 0 123 17" fill="none" xmlns="http://www.w3.org/2000/svg">
<path d="M2.49947 0.5C1.96584 0.5 1.60345 1.04306 1.80755 1.53687L6.11898 11.9677C6.14087 12.0207 6.19248 12.0552 6.24972 12.0552C6.30697 12.0552 6.35858 12.0207 6.38047 11.9677L10.6909 1.5368C10.8949 1.04301 10.5325 0.5 9.99891 0.5H2.49947Z" fill="white"/>
<path d="M1.38777 16.5C0.974188 16.5 0.638916 16.1642 0.638916 15.75V5.47928C0.638916 5.42923 0.679423 5.38866 0.729396 5.38866C0.766186 5.38866 0.799312 5.41097 0.813191 5.4451L4.88866 15.4671C5.08924 15.9604 4.7269 16.5 4.19511 16.5H1.38777Z" fill="white"/>
<path d="M7.53518 15.4665C7.33409 15.9599 7.69643 16.5 8.22849 16.5H11.0455C11.4591 16.5 11.7943 16.1642 11.7943 15.75V5.47931C11.7943 5.42924 11.7538 5.38866 11.7038 5.38866C11.6671 5.38866 11.6339 5.41095 11.62 5.44505L7.53518 15.4665Z" fill="white"/>
<path d="M15.4444 16.5C15.0308 16.5 14.6955 16.1642 14.6955 15.75V1.25C14.6955 0.835785 15.0308 0.5 15.4444 0.5H16.8641C17.2777 0.5 17.613 0.835785 17.613 1.25V15.75C17.613 16.1642 17.2777 16.5 16.8641 16.5H15.4444Z" fill="white"/>
<path d="M111.46 2.8195C111.681 2.60991 111.975 2.49526 112.28 2.50025C112.43 2.49711 112.58 2.52369 112.721 2.57847C112.861 2.63325 112.99 2.71515 113.099 2.8195C113.208 2.91447 113.295 3.03204 113.355 3.16409C113.414 3.29614 113.444 3.4395 113.442 3.58422C113.443 3.72884 113.413 3.87196 113.354 4.00391C113.294 4.13585 113.207 4.25352 113.099 4.34894C112.877 4.55688 112.583 4.66949 112.28 4.66241C111.976 4.66782 111.683 4.55545 111.46 4.34894C111.352 4.25352 111.265 4.13585 111.205 4.00391C111.146 3.87196 111.116 3.72884 111.117 3.58422C111.115 3.4395 111.145 3.29614 111.205 3.16409C111.264 3.03204 111.351 2.91447 111.46 2.8195Z" fill="white"/>
<path d="M31.637 11.1579C31.6218 11.1949 31.5857 11.2191 31.5457 11.2191C31.5058 11.2191 31.4697 11.1949 31.4545 11.1579L28.335 3.58699C28.2194 3.30624 27.946 3.12309 27.6428 3.12309H26.3496C25.936 3.12309 25.6008 3.45887 25.6008 3.87309V13.5832C25.6008 13.9974 25.936 14.3332 26.3496 14.3332H26.8782C27.2917 14.3332 27.627 13.9974 27.627 13.5832V6.6115C27.627 6.57656 27.6553 6.54824 27.6902 6.54824C27.7159 6.54824 27.739 6.56384 27.7487 6.5877L30.6988 13.8653C30.8135 14.1482 31.0879 14.3332 31.3927 14.3332H31.6456C31.9502 14.3332 32.2244 14.1485 32.3392 13.8659L35.2965 6.58767C35.3062 6.56383 35.3294 6.54824 35.3551 6.54824C35.39 6.54824 35.4183 6.57657 35.4183 6.61152V13.5832C35.4183 13.9974 35.7535 14.3332 36.1671 14.3332H36.6956C37.1092 14.3332 37.4445 13.9974 37.4445 13.5832V3.87309C37.4445 3.45887 37.1092 3.12309 36.6956 3.12309H35.4479C35.1446 3.12309 34.8713 3.30627 34.7557 3.58705L31.637 11.1579Z" fill="white"/>
<path fill-rule="evenodd" clip-rule="evenodd" d="M46.0697 6.6794C45.7066 6.33334 45.2724 6.07043 44.7973 5.90891C44.3067 5.73753 43.7903 5.65186 43.2706 5.65565C42.4378 5.65565 41.7125 5.84098 41.0949 6.21165C40.4779 6.57876 39.9778 7.11308 39.6524 7.75265C39.3122 8.40985 39.1421 9.17319 39.1421 10.0427C39.1421 10.927 39.3125 11.697 39.6532 12.3525C39.9807 12.9878 40.4885 13.5124 41.1131 13.8605C41.7494 14.213 42.5049 14.3893 43.3796 14.3893C43.9948 14.4 44.6069 14.2994 45.1862 14.0923C45.6778 13.9135 46.1213 13.6232 46.4817 13.2443C46.6256 13.0901 46.7515 12.9212 46.8576 12.7409C47.0862 12.3523 46.7794 11.9118 46.3319 11.8612L45.8402 11.8055C45.4978 11.7668 45.1862 11.9833 44.9545 12.2387C44.9227 12.2737 44.8893 12.3073 44.8543 12.3393C44.6712 12.5037 44.4566 12.6291 44.2235 12.7081C43.9609 12.7919 43.6866 12.8329 43.411 12.8293C43.0038 12.8387 42.601 12.7439 42.241 12.5538C41.9087 12.3676 41.6384 12.0883 41.4632 11.7503C41.3969 11.6175 41.3422 11.4798 41.2995 11.3386C41.1791 10.9406 41.5252 10.5954 41.9405 10.5954H46.5932C46.963 10.5954 47.2628 10.2951 47.2628 9.92471C47.2628 9.18336 47.1569 8.54486 46.9449 8.0092C46.756 7.5063 46.457 7.05195 46.0697 6.6794ZM41.9808 9.19464C41.5511 9.19464 41.1995 8.82161 41.3766 8.42953C41.4003 8.37704 41.4261 8.32543 41.4541 8.27483C41.6301 7.9575 41.8863 7.69184 42.1972 7.50434C42.5305 7.30212 42.9146 7.1991 43.3045 7.20736C43.6661 7.19922 44.0232 7.28871 44.3382 7.46639C44.6325 7.6339 44.8743 7.87981 45.0368 8.17667C45.0876 8.26965 45.1311 8.36603 45.167 8.46494C45.3077 8.8521 44.9608 9.19464 44.5494 9.19464H41.9808Z" fill="white"/>
<path d="M52.3879 12.8186C52.5041 12.8196 52.6201 12.8104 52.7347 12.7914C52.8702 12.7679 53.0061 12.8531 53.0356 12.9876L53.2196 13.8284C53.278 14.0947 53.1244 14.365 52.8577 14.4198C52.6182 14.4683 52.3746 14.494 52.1303 14.4965C51.6623 14.5178 51.1951 14.4408 50.7588 14.2705C50.3652 14.1125 50.0278 13.8404 49.7903 13.4893C49.5552 13.1379 49.4396 12.6979 49.4435 12.1694V4.65265C49.4435 4.23843 49.7788 3.90265 50.1923 3.90265H50.7209C51.1345 3.90265 51.4697 4.23843 51.4697 4.65265V5.1754C51.4697 5.58961 51.805 5.9254 52.2186 5.9254H52.279C52.6925 5.9254 53.0278 6.26118 53.0278 6.6754V6.73289C53.0278 7.1471 52.6925 7.48289 52.279 7.48289H52.2186C51.805 7.48289 51.4697 7.81868 51.4697 8.23289V11.8394C51.4697 12.1072 51.5107 12.3126 51.5928 12.4556C51.6686 12.5867 51.7872 12.6878 51.9288 12.7419C52.076 12.7947 52.2315 12.8207 52.3879 12.8186Z" fill="white"/>
<path fill-rule="evenodd" clip-rule="evenodd" d="M60.6242 6.3849C60.2799 6.16263 59.8993 6.00237 59.4996 5.91138C59.0936 5.81654 58.678 5.76866 58.2611 5.76866C57.7014 5.76187 57.1448 5.85117 56.6155 6.03265C56.1406 6.19169 55.7095 6.45918 55.3563 6.81387C55.2046 6.96883 55.071 7.13935 54.9575 7.32207C54.7188 7.70634 55.014 8.15695 55.4615 8.21941L55.9097 8.28196C56.2593 8.33074 56.5828 8.11229 56.8188 7.84949C56.8985 7.7608 56.9883 7.68089 57.0869 7.61158C57.3781 7.39874 57.7717 7.29233 58.2677 7.29233C58.7378 7.29233 59.0978 7.40617 59.3477 7.63386C59.5976 7.86153 59.7225 8.18272 59.7225 8.59739C59.7225 8.60945 59.7213 8.62131 59.7185 8.63303C59.7017 8.70244 59.6324 8.95854 59.5087 9.03955C59.365 9.1336 59.1437 9.19382 58.8333 9.23754C58.6161 9.26812 58.3533 9.29628 58.0445 9.32936L58.044 9.32941C57.9115 9.34361 57.7706 9.35872 57.6211 9.37531C57.216 9.41778 56.8145 9.48946 56.4198 9.58979C56.0549 9.67735 55.7057 9.82035 55.3843 10.0138C55.0823 10.1967 54.8326 10.4544 54.6594 10.762C54.4821 11.0739 54.3935 11.4685 54.3935 11.9458C54.3935 12.5002 54.5171 12.9663 54.7642 13.3441C55.0146 13.7216 55.3678 14.0196 55.7823 14.2029C56.2421 14.3993 56.7381 14.4968 57.238 14.4891C57.631 14.4971 58.0224 14.4356 58.394 14.3076C58.6986 14.1997 58.9791 14.0332 59.2197 13.8176C59.3965 13.6471 59.7217 13.7654 59.7217 14.0112V14.0574C59.7217 14.2088 59.8442 14.3315 59.9954 14.3315H60.9991C61.4127 14.3315 61.748 13.9958 61.748 13.5815V8.67493C61.748 8.11342 61.6434 7.64595 61.4342 7.27253C61.2441 6.91264 60.9654 6.60713 60.6242 6.3849ZM58.806 12.7881L58.8062 12.7888C58.4829 12.9528 58.1239 13.0339 57.7615 13.0248C57.3443 13.0248 57.001 12.9314 56.7319 12.7444C56.4627 12.5574 56.327 12.2802 56.3248 11.9128C56.3147 11.6857 56.3875 11.4626 56.5296 11.285C56.6795 11.1106 56.8721 10.9779 57.0886 10.8998C57.3474 10.8025 57.6168 10.736 57.8912 10.7018L58.3618 10.6358C58.5429 10.61 58.7257 10.5805 58.9101 10.5475C59.0772 10.5183 59.2426 10.4797 59.4055 10.4321C59.551 10.3978 59.7267 10.4936 59.7267 10.6433V11.2859C59.7296 11.5915 59.6461 11.8918 59.4856 12.1521C59.3202 12.421 59.0854 12.6405 58.8058 12.7873L58.806 12.7881Z" fill="white"/>
<path d="M66.9044 12.1537C66.9305 12.1537 66.9535 12.1368 66.9612 12.1119L68.7276 6.45166C68.8253 6.13857 69.1149 5.9254 69.4424 5.9254H69.9523C70.4706 5.9254 70.8321 6.43997 70.6572 6.92857L68.1838 13.8364C68.0771 14.1344 67.795 14.3332 67.4789 14.3332H66.3308C66.0147 14.3332 65.7326 14.1344 65.6259 13.8364L63.1525 6.92857C62.9775 6.43997 63.3391 5.9254 63.8574 5.9254H64.3725C64.7003 5.9254 64.99 6.13892 65.0875 6.45235L66.8476 12.1118C66.8554 12.1367 66.8784 12.1537 66.9044 12.1537Z" fill="white"/>
<path fill-rule="evenodd" clip-rule="evenodd" d="M78.5137 6.6794C78.1624 6.33488 77.7396 6.07182 77.2751 5.90891C76.7985 5.73785 76.2953 5.65211 75.7889 5.65565C74.9775 5.65565 74.271 5.84098 73.6693 6.21165C73.0652 6.58264 72.5786 7.11691 72.2656 7.75265C71.9354 8.4093 71.7702 9.17265 71.7702 10.0427C71.7702 10.927 71.9354 11.697 72.2656 12.3525C72.581 12.9841 73.0759 13.5087 73.6883 13.8605C74.3081 14.213 75.0441 14.3893 75.8962 14.3893C76.4961 14.3998 77.0927 14.2991 77.6558 14.0923C78.1368 13.9118 78.5689 13.6214 78.9174 13.2443C79.059 13.0882 79.1826 12.9178 79.2864 12.7363C79.5088 12.3475 79.2032 11.9113 78.7588 11.8598L78.3128 11.808C77.9671 11.7679 77.6525 11.988 77.4198 12.2471C77.416 12.2513 77.4122 12.2554 77.4084 12.2596L77.4007 12.268L77.3936 12.2755C77.3729 12.2973 77.3516 12.3186 77.3296 12.3393C77.1524 12.5031 76.9433 12.6286 76.7153 12.7081C76.4601 12.7918 76.1929 12.8328 75.9243 12.8293C75.5266 12.8386 75.1335 12.7436 74.784 12.5538C74.4584 12.3655 74.1949 12.0862 74.026 11.7503C73.9615 11.6173 73.9083 11.4796 73.8668 11.3386C73.7493 10.94 74.0952 10.5954 74.5102 10.5954H79.0074C79.3773 10.5954 79.6771 10.2951 79.6771 9.92471C79.6771 9.18336 79.5739 8.54486 79.3674 8.0092C79.1845 7.50843 78.893 7.0543 78.5137 6.6794ZM74.5468 9.1953C74.1184 9.1954 73.7672 8.82508 73.9385 8.43186C73.9617 8.37862 73.987 8.32624 74.0145 8.27483C74.1846 7.95912 74.4345 7.69347 74.7394 7.50434C75.0626 7.30257 75.4376 7.19936 75.8186 7.20736C76.1718 7.19949 76.5204 7.28912 76.826 7.46639C77.1142 7.63566 77.3497 7.88155 77.5063 8.17667C77.5558 8.27006 77.598 8.36667 77.6329 8.46568C77.7696 8.8536 77.4232 9.19471 77.0124 9.19479L74.5468 9.1953Z" fill="white"/>
<path d="M84.2299 6.20176C84.6033 5.93419 85.0528 5.79337 85.5123 5.80001C85.6212 5.80001 85.7437 5.80441 85.8797 5.81321C86.08 5.82153 86.2232 5.99767 86.2232 6.19846V7.27761C86.2232 7.48049 86.0269 7.62605 85.8252 7.60745C85.6535 7.58218 85.4802 7.56921 85.3067 7.56868C84.968 7.56342 84.6338 7.64493 84.3356 7.80544C84.057 7.95464 83.8248 8.17753 83.6644 8.44972C83.4962 8.73846 83.4106 9.06772 83.4166 9.4017V13.5832C83.4166 13.9974 83.0814 14.3332 82.6678 14.3332H82.1392C81.7257 14.3332 81.3904 13.9974 81.3904 13.5832V6.67788C81.3904 6.26366 81.7257 5.92788 82.1392 5.92788H82.5605C82.9471 5.92788 83.2606 6.24181 83.2606 6.62907V7.22571C83.2606 7.28346 83.3073 7.33028 83.365 7.33028C83.4117 7.33028 83.4524 7.29914 83.4669 7.25467C83.6037 6.83281 83.8704 6.46407 84.2299 6.20176Z" fill="white"/>
<path d="M92.0691 9.49657L90.6192 9.18804C90.1876 9.08905 89.8777 8.96256 89.6894 8.80857C89.6003 8.73684 89.5293 8.6452 89.4821 8.54103C89.4349 8.43686 89.4129 8.32307 89.4178 8.20884C89.4139 7.92286 89.5515 7.68995 89.8306 7.51012C90.1482 7.32134 90.5133 7.22771 90.8826 7.24036C91.1523 7.23242 91.4205 7.28308 91.6686 7.38885C91.8676 7.47619 92.0424 7.61035 92.1781 7.77987C92.3933 8.04315 92.696 8.27041 93.0338 8.23379L93.4845 8.18494C93.9137 8.13842 94.2224 7.73032 94.0271 7.34478C93.8363 6.96807 93.5568 6.63863 93.2077 6.38737C92.6358 5.96555 91.8517 5.75464 90.8553 5.75464C90.2405 5.7429 89.6293 5.85135 89.0561 6.07389C88.5779 6.25454 88.1586 6.56303 87.844 6.96565C87.5534 7.35606 87.4033 7.83307 87.418 8.31938C87.4141 8.93588 87.6068 9.44598 87.9959 9.84965C88.3851 10.2533 88.9884 10.5376 89.8059 10.7026L91.2558 11.0054C91.6472 11.0895 91.935 11.2105 92.1195 11.3684C92.2094 11.44 92.2816 11.5314 92.3306 11.6354C92.3795 11.7394 92.4039 11.8532 92.4018 11.9681C92.4018 12.2541 92.256 12.4944 91.9642 12.6891C91.6725 12.8838 91.2918 12.9797 90.8223 12.977C90.361 12.977 89.9864 12.8797 89.6985 12.685C89.5942 12.6127 89.5013 12.5269 89.422 12.4307C89.1766 12.1331 88.8421 11.8501 88.4585 11.8869L87.9543 11.9352C87.5315 11.9757 87.2184 12.3683 87.3962 12.7545C87.4417 12.8534 87.4935 12.9495 87.5513 13.0424C87.7469 13.3565 88.0071 13.6256 88.3147 13.8316C88.9493 14.2645 89.7871 14.4809 90.8281 14.4809C91.4718 14.4928 92.1114 14.3767 92.7098 14.1393C93.2134 13.9438 93.6551 13.6167 93.9888 13.1923C94.2979 12.7879 94.4635 12.2922 94.4595 11.7833C94.4556 11.1784 94.2564 10.6883 93.8617 10.3133C93.467 9.93819 92.8695 9.66596 92.0691 9.49657Z" fill="white"/>
<path fill-rule="evenodd" clip-rule="evenodd" d="M101.275 5.90891C101.739 6.07182 102.162 6.33488 102.513 6.6794C102.892 7.05438 103.184 7.50851 103.366 8.0092C103.573 8.54486 103.676 9.18336 103.676 9.92471C103.676 10.2951 103.376 10.5954 103.006 10.5954H98.509C98.094 10.5954 97.7481 10.94 97.8656 11.3386C97.9071 11.4796 97.9603 11.6173 98.0248 11.7503C98.1937 12.0862 98.4572 12.3655 98.7828 12.5538C99.1322 12.7436 99.5254 12.8386 99.9231 12.8293C100.192 12.8328 100.459 12.7918 100.714 12.7081C100.942 12.6286 101.151 12.5031 101.328 12.3393C101.36 12.3095 101.39 12.2785 101.419 12.2463C101.651 11.9874 101.965 11.7675 102.311 11.807L102.753 11.8576C103.198 11.9085 103.504 12.3451 103.281 12.7342C103.178 12.9152 103.054 13.0852 102.913 13.241C102.564 13.6181 102.132 13.9086 101.651 14.089C101.088 14.2958 100.492 14.3965 99.8917 14.386C99.0396 14.386 98.3036 14.2097 97.6838 13.8572C97.0734 13.5056 96.58 12.9823 96.2653 12.3525C95.935 11.697 95.7698 10.927 95.7698 10.0427C95.7698 9.17265 95.935 8.4093 96.2653 7.75265C96.5782 7.11691 97.0648 6.58264 97.6689 6.21165C98.2706 5.84098 98.9771 5.65565 99.7885 5.65565C100.295 5.65211 100.798 5.73785 101.275 5.90891ZM97.9381 8.43143C97.7663 8.82468 98.1176 9.1954 98.5462 9.1953L101.008 9.19479C101.419 9.19471 101.765 8.85352 101.628 8.46555C101.593 8.36658 101.551 8.27001 101.502 8.17667C101.345 7.88155 101.11 7.63566 100.821 7.46639C100.517 7.28985 100.17 7.20024 99.8182 7.20736C99.4372 7.19931 99.0621 7.30252 98.739 7.50434C98.4341 7.69344 98.1841 7.9591 98.0141 8.27483C97.9866 8.3261 97.9613 8.37834 97.9381 8.43143Z" fill="white"/>
<path d="M109.148 12.7914C109.033 12.8104 108.917 12.8196 108.801 12.8186C108.645 12.8207 108.489 12.7947 108.342 12.7419C108.2 12.6878 108.082 12.5867 108.006 12.4556C107.924 12.3126 107.883 12.1072 107.883 11.8394V8.23289C107.883 7.81868 108.218 7.48289 108.632 7.48289H108.848C109.262 7.48289 109.597 7.1471 109.597 6.73289V6.6754C109.597 6.26118 109.262 5.9254 108.848 5.9254H108.632C108.218 5.9254 107.883 5.58961 107.883 5.1754V4.65265C107.883 4.23843 107.548 3.90265 107.134 3.90265H106.607C106.193 3.90265 105.858 4.23843 105.858 4.65265V12.1694C105.854 12.6979 105.97 13.1379 106.205 13.4893C106.442 13.8403 106.779 14.1124 107.173 14.2705C107.609 14.4407 108.076 14.5177 108.543 14.4965C108.788 14.494 109.031 14.4683 109.271 14.4198C109.54 14.3643 109.694 14.0917 109.635 13.8232L109.453 12.9895C109.423 12.8534 109.285 12.7676 109.148 12.7914Z" fill="white"/>
<path d="M113.337 6.6754C113.337 6.26118 113.002 5.9254 112.588 5.9254H112.06C111.646 5.9254 111.311 6.26118 111.311 6.6754V13.5832C111.311 13.9974 111.646 14.3332 112.06 14.3332H112.588C113.002 14.3332 113.337 13.9974 113.337 13.5832V6.6754Z" fill="white"/>
<path d="M119.858 12.647C120.094 12.5332 120.298 12.3632 120.452 12.1521C120.495 12.0927 120.533 12.031 120.568 11.9674C120.745 11.6469 121.044 11.3717 121.409 11.3717H121.899C122.332 11.3717 122.682 11.7437 122.551 12.157C122.46 12.4426 122.331 12.7158 122.166 12.9687C121.851 13.4353 121.418 13.8093 120.91 14.0519C120.381 14.3098 119.758 14.4388 119.043 14.4388C118.191 14.4388 117.459 14.2526 116.848 13.8803C116.243 13.5099 115.756 12.9752 115.444 12.3385C115.119 11.6818 114.956 10.9229 114.956 10.0617C114.956 9.20042 115.122 8.43982 115.456 7.77987C115.769 7.1413 116.259 6.60592 116.868 6.23723C117.479 5.86491 118.201 5.67874 119.035 5.67874C119.669 5.66623 120.297 5.79649 120.874 6.05987C121.396 6.29308 121.842 6.66576 122.165 7.13671C122.338 7.38934 122.472 7.66496 122.563 7.9542C122.692 8.36337 122.343 8.72855 121.915 8.72855H121.409C121.045 8.72855 120.748 8.45523 120.568 8.13904C120.476 7.97932 120.361 7.83326 120.224 7.70645C119.936 7.43147 119.549 7.29398 119.063 7.29398C118.676 7.28617 118.297 7.40175 117.98 7.62395C117.653 7.86156 117.4 8.18752 117.252 8.56356C117.071 9.03196 116.984 9.53153 116.996 10.0336C116.984 10.5429 117.071 11.0498 117.252 11.5259C117.397 11.9052 117.645 12.2363 117.969 12.482C118.244 12.6655 118.562 12.7768 118.892 12.8056C119.222 12.8345 119.554 12.7799 119.858 12.647Z" fill="white"/>
</svg>
