<svg width="21" height="19" viewBox="0 0 21 19" fill="none" xmlns="http://www.w3.org/2000/svg">
<path d="M3.1634 4.0004L8.94362 8.13004C10.0907 8.94955 11.6316 8.94955 12.7787 8.13004L18.5589 4.0004M1.74654 12.6513C1.23268 10.5819 1.23268 8.41815 1.74654 6.34875C2.41919 3.63984 4.56716 1.54534 7.2917 0.941619L7.74557 0.841048C9.79775 0.386317 11.9246 0.386318 13.9767 0.841048L14.4306 0.941618C17.1551 1.54534 19.3031 3.63984 19.9758 6.34876C20.4896 8.41815 20.4896 10.5819 19.9758 12.6512C19.3031 15.3602 17.1551 17.4547 14.4306 18.0584L13.9767 18.159C11.9245 18.6137 9.79774 18.6137 7.74557 18.159L7.2917 18.0584C4.56716 17.4547 2.41919 15.3602 1.74654 12.6513Z" stroke="white" stroke-linecap="round"/>
</svg>
